# xmcd
#
# Track frame offsets: 
#        150
#        19530
#        47336
#        67470
#        89678
#        106056
#        145832
#        172015
#        187068
#        205726
#        231836
#        253373
#        290047
#        304719
#        320796
#
# Disc length: 4532 seconds
#
# Revision: 0
# Processed by: cddbd v1.5.2PL0 Copyright (c) Steve Scherf et al.
# Submitted via: ExactAudioCopy v1.0b3
#
DISCID=e711b20f
DTITLE=Various Artist - 10 Jahre BIT
DYEAR=2012
DGENRE=Blues
TTITLE0=Boogie Connection - Bright lights, big city
TTITLE1=Big Daddy Wilson - Brother blood
TTITLE2=Crazy Hambones - Pony blues
TTITLE3=Schroeter, Breitfelder - Long as I can see the light
TTITLE4=Fast Eddy's Blue Band - For you my love
TTITLE5=Tin Pan Alley - Baby I love you
TTITLE6=Schroeter, Breitfelder - Talk to me
TTITLE7=Klaus Marquardt - Many of my words
TTITLE8=Abi Wallenstein - Kansas city
TTITLE9=Los Reyes del Ko - The great googa mooga
TTITLE10=Black Cat Bone - I just wanna make love to you
TTITLE11=Little Martin - Mistery train
TTITLE12=Filisko, Noden - Too muxh whiskey
TTITLE13=Zydeco Anne - Watcha gonna do
TTITLE14=Abi Wallenstein - The hunter
EXTD=
EXTT0=
EXTT1=
EXTT2=
EXTT3=
EXTT4=
EXTT5=
EXTT6=
EXTT7=
EXTT8=
EXTT9=
EXTT10=
EXTT11=
EXTT12=
EXTT13=
EXTT14=
PLAYORDER=
